# xmcd
#
# Track frame offsets:
#       150
#       16928
#       42427
#       75496
#
# Disc length: 1272 seconds
#
# Revision: 1
# Processed by: cddbd v1.4PL0 Copyright (c) Steve Scherf et al.
# Submitted via: MusiCat 1.1
#
DISCID=2204f604
DTITLE=Jenny Morris - Downtime - CD single
DYEAR=1900
DGENRE=
TTITLE0=Downtime CD single
TTITLE1=
TTITLE2=
TTITLE3=
EXTD=\n\n
EXTT0=
EXTT1=
EXTT2=
EXTT3=
PLAYORDER=
